<svg xmlns="http://www.w3.org/2000/svg" width="256" height="256" viewBox="0 0 256 256">
  <g id="C_" data-name="C++" transform="translate(-512 -952)">
    <path id="Path_2591" data-name="Path 2591" d="M51.2,0H204.8A51.2,51.2,0,0,1,256,51.2V204.8A51.2,51.2,0,0,1,204.8,256H51.2A51.2,51.2,0,0,1,0,204.8V51.2A51.2,51.2,0,0,1,51.2,0Z" transform="translate(512 952)" fill="rgba(57,0,145,0.2)"/>
    <g id="c-sharp" transform="translate(583 1016)">
      <path id="Path_2604" data-name="Path 2604" d="M113.882,37.632a11.3,11.3,0,0,0-1.392-5.686,10.873,10.873,0,0,0-4.12-4.014Q85.627,14.818,62.875,1.723a11.169,11.169,0,0,0-12.1.12C44.736,5.4,14.522,22.712,5.519,27.927a10.516,10.516,0,0,0-5.513,9.7Q0,64,0,90.372a11.343,11.343,0,0,0,1.331,5.578,10.836,10.836,0,0,0,4.182,4.124c9,5.215,39.222,22.524,45.255,26.084a11.17,11.17,0,0,0,12.107.12q22.736-13.127,45.5-26.209a10.84,10.84,0,0,0,4.182-4.123,11.358,11.358,0,0,0,1.331-5.578s0-35.153-.006-52.735" transform="translate(0 0)" fill="#a179dc"/>
      <path id="Path_2605" data-name="Path 2605" d="M58.775,143.241,2.988,175.362a10.836,10.836,0,0,0,4.182,4.124c9,5.215,39.222,22.524,45.255,26.084a11.17,11.17,0,0,0,12.107.12q22.736-13.127,45.5-26.209a10.84,10.84,0,0,0,4.182-4.123L58.775,143.241" transform="translate(-1.657 -79.412)" fill="#280068"/>
      <path id="Path_2606" data-name="Path 2606" d="M184.946,77.378a11.3,11.3,0,0,0-1.392-5.686l-55.372,31.883,55.439,32.116a11.367,11.367,0,0,0,1.331-5.578s0-35.153-.006-52.735" transform="translate(-71.064 -39.746)" fill="#390091"/>
      <path id="Path_2607" data-name="Path 2607" d="M190.688,116.294v6h6v-6h3v6h6v3h-6v6h6v3h-6v6h-3v-6h-6v6h-3v-6h-6v-3h6v-6h-6v-3h6v-6Zm6,9.006h-6v6h6Z" transform="translate(-100.724 -64.473)" fill="#fff"/>
      <path id="Path_2608" data-name="Path 2608" d="M75.789,48.626a42.317,42.317,0,0,1,36.656,21.146l-.072-.122L93.948,80.26A21.069,21.069,0,0,0,76.029,69.88h-.24a21.079,21.079,0,1,0,18.368,31.415l-.088.154,18.4,10.658A42.319,42.319,0,0,1,76.26,133.288l-.471,0a42.332,42.332,0,1,1,0-84.664Z" transform="translate(-18.548 -26.958)" fill="#fff"/>
    </g>
  </g>
</svg>
