<svg xmlns="http://www.w3.org/2000/svg" width="256" height="256" viewBox="0 0 256 256">
  <g id="C" transform="translate(-512 -952)">
    <path id="Path_2591" data-name="Path 2591" d="M51.2,0H204.8A51.2,51.2,0,0,1,256,51.2V204.8A51.2,51.2,0,0,1,204.8,256H51.2A51.2,51.2,0,0,1,0,204.8V51.2A51.2,51.2,0,0,1,51.2,0Z" transform="translate(512 952)" fill="rgba(57,73,171,0.2)"/>
    <g id="c_logo" transform="translate(583.121 1015.995)">
      <path id="Path_2592" data-name="Path 2592" d="M110.032,94.725a10.046,10.046,0,0,0,1.448-4.855v-54.3a10.079,10.079,0,0,0-1.448-4.855l-55.432,32,55.432,32Z" transform="translate(2.28 1.283)" fill="#3949ab" fill-rule="evenodd"/>
      <path id="Path_2593" data-name="Path 2593" d="M61.749,124.268,108.774,97.12a10.133,10.133,0,0,0,3.479-3.677l-55.432-32-55.432,32A10.133,10.133,0,0,0,4.869,97.12l47.025,27.148a10.945,10.945,0,0,0,9.855,0Z" transform="translate(0.058 2.565)" fill="#283593" fill-rule="evenodd"/>
      <path id="Path_2594" data-name="Path 2594" d="M112.312,32a10.133,10.133,0,0,0-3.479-3.677L61.807,1.177a10.945,10.945,0,0,0-9.855,0L4.928,28.325A10.934,10.934,0,0,0,0,36.857v54.3a10.079,10.079,0,0,0,1.448,4.855l55.432-32,55.432-32Z" fill="#5c6bc0" fill-rule="evenodd"/>
      <path id="Path_2595" data-name="Path 2595" d="M56.12,100.88A37.92,37.92,0,1,1,88.956,43.99l-16.408,9.5a18.96,18.96,0,1,0,0,18.96l16.408,9.5A38.075,38.075,0,0,1,56.12,100.88Z" transform="translate(0.76 1.045)" fill="#fff" fill-rule="evenodd"/>
    </g>
  </g>
</svg>
