<svg xmlns="http://www.w3.org/2000/svg" xmlns:xlink="http://www.w3.org/1999/xlink" width="256" height="256" viewBox="0 0 256 256">
  <defs>
    <clipPath id="clip-path">
      <rect id="Rectangle_299" data-name="Rectangle 299" width="128" height="99" transform="translate(-0.383 -0.057)" fill="#fff"/>
    </clipPath>
  </defs>
  <g id="discord" transform="translate(-512 -952)">
    <path id="Path_2591" data-name="Path 2591" d="M51.2,0H204.8A51.2,51.2,0,0,1,256,51.2V204.8A51.2,51.2,0,0,1,204.8,256H51.2A51.2,51.2,0,0,1,0,204.8V51.2A51.2,51.2,0,0,1,51.2,0Z" transform="translate(512 952)" fill="rgba(88,101,242,0.2)"/>
    <g id="Discord-Logo-Color" transform="translate(576.383 1031.057)" clip-path="url(#clip-path)">
      <path id="Path_2729" data-name="Path 2729" d="M107.667,8.448A104.881,104.881,0,0,0,81.779.418a.393.393,0,0,0-.416.2,73.058,73.058,0,0,0-3.223,6.621,96.825,96.825,0,0,0-29.076,0A67.006,67.006,0,0,0,45.789.615a.408.408,0,0,0-.416-.2A104.589,104.589,0,0,0,19.485,8.448a.37.37,0,0,0-.17.146C2.827,33.227-1.69,57.255.526,80.985a.437.437,0,0,0,.165.3A105.468,105.468,0,0,0,32.449,97.336a.411.411,0,0,0,.446-.146,75.38,75.38,0,0,0,6.5-10.568.4.4,0,0,0-.221-.56,69.455,69.455,0,0,1-9.921-4.729.408.408,0,0,1-.04-.676c.667-.5,1.334-1.019,1.97-1.544a.393.393,0,0,1,.411-.056,75.214,75.214,0,0,0,63.917,0,.392.392,0,0,1,.416.051c.637.525,1.3,1.05,1.975,1.549a.408.408,0,0,1-.035.676,65.175,65.175,0,0,1-9.926,4.724.406.406,0,0,0-.215.565,84.637,84.637,0,0,0,6.492,10.563.4.4,0,0,0,.446.151,105.117,105.117,0,0,0,31.808-16.054.408.408,0,0,0,.166-.293c2.652-27.434-4.442-51.265-18.8-72.391A.323.323,0,0,0,107.667,8.448ZM42.5,66.536c-6.267,0-11.43-5.753-11.43-12.819S36.134,40.9,42.5,40.9c6.417,0,11.53,5.8,11.43,12.819C53.931,60.783,48.867,66.536,42.5,66.536Zm42.261,0c-6.266,0-11.43-5.753-11.43-12.819S78.395,40.9,84.761,40.9c6.417,0,11.53,5.8,11.43,12.819C96.192,60.783,91.178,66.536,84.761,66.536Z" transform="translate(-0.009 0.324)" fill="#5865f2"/>
    </g>
  </g>
</svg>
