<svg xmlns="http://www.w3.org/2000/svg" width="256" height="256" viewBox="0 0 256 256">
  <g id="git" transform="translate(-512 -952)">
    <path id="Path_2591" data-name="Path 2591" d="M51.2,0H204.8A51.2,51.2,0,0,1,256,51.2V204.8A51.2,51.2,0,0,1,204.8,256H51.2A51.2,51.2,0,0,1,0,204.8V51.2A51.2,51.2,0,0,1,51.2,0Z" transform="translate(512 952)" fill="rgba(240,81,51,0.2)"/>
    <g id="Git_icon" transform="translate(573.445 1013.444)">
      <path id="Path_2717" data-name="Path 2717" d="M128.14,60.855,72.255,4.972a8.244,8.244,0,0,0-11.658,0l-11.6,11.606L63.713,31.3a9.79,9.79,0,0,1,12.4,12.481L90.3,57.967A9.8,9.8,0,1,1,84.424,63.5L71.191,50.267V85.087a9.793,9.793,0,1,1-8.064-.286V49.657A9.813,9.813,0,0,1,57.8,36.792L43.29,22.279,4.969,60.6a8.247,8.247,0,0,0,0,11.661l55.888,55.884a8.243,8.243,0,0,0,11.658,0L128.14,72.516A8.247,8.247,0,0,0,128.14,60.855Z" transform="translate(0)" fill="#f05133"/>
    </g>
  </g>
</svg>
