<svg xmlns="http://www.w3.org/2000/svg" width="256" height="256" viewBox="0 0 256 256">
  <g id="github" transform="translate(-512 -952)">
    <path id="Path_2591" data-name="Path 2591" d="M51.2,0H204.8A51.2,51.2,0,0,1,256,51.2V204.8A51.2,51.2,0,0,1,204.8,256H51.2A51.2,51.2,0,0,1,0,204.8V51.2A51.2,51.2,0,0,1,51.2,0Z" transform="translate(512 952)" fill="rgba(0,0,0,0.2)"/>
    <path id="github-2" data-name="github" d="M65.617,0A65.62,65.62,0,0,0,44.866,127.872c3.281.574,4.511-1.394,4.511-3.117,0-1.558-.082-6.726-.082-12.221-16.486,3.035-20.751-4.019-22.064-7.71-.738-1.887-3.937-7.71-6.726-9.268-2.3-1.23-5.577-4.265-.082-4.347,5.167-.082,8.858,4.757,10.089,6.726,5.906,9.925,15.338,7.136,19.111,5.413.574-4.265,2.3-7.136,4.183-8.776-14.6-1.64-29.856-7.3-29.856-32.4a25.537,25.537,0,0,1,6.726-17.635c-.656-1.64-2.953-8.366.656-17.389,0,0,5.5-1.722,18.045,6.726a61.864,61.864,0,0,1,32.809,0c12.549-8.53,18.045-6.726,18.045-6.726,3.609,9.022,1.312,15.748.656,17.389a25.389,25.389,0,0,1,6.726,17.635c0,25.181-15.338,30.758-29.938,32.4,2.379,2.051,4.429,5.988,4.429,12.139,0,8.776-.082,15.83-.082,18.045,0,1.722,1.23,3.773,4.511,3.117A65.652,65.652,0,0,0,65.617,0Z" transform="translate(574.383 1016.001)" fill="#fff" fill-rule="evenodd"/>
  </g>
</svg>
