<svg xmlns="http://www.w3.org/2000/svg" width="256" height="256" viewBox="0 0 256 256">
  <g id="go" transform="translate(-512 -952)">
    <path id="Path_2591" data-name="Path 2591" d="M51.2,0H204.8A51.2,51.2,0,0,1,256,51.2V204.8A51.2,51.2,0,0,1,204.8,256H51.2A51.2,51.2,0,0,1,0,204.8V51.2A51.2,51.2,0,0,1,51.2,0Z" transform="translate(512 952)" fill="rgba(0,172,215,0.2)"/>
    <g id="go_logo" transform="translate(576 1056.124)">
      <g id="Group_319" data-name="Group 319" transform="translate(9.41 12.14)">
        <g id="Group_318" data-name="Group 318">
          <g id="Group_317" data-name="Group 317">
            <path id="Path_2628" data-name="Path 2628" d="M15.349,21.806c-.249,0-.312-.125-.187-.312l1.309-1.683a.893.893,0,0,1,.686-.312H39.405c.249,0,.312.187.187.374l-1.059,1.62a.95.95,0,0,1-.623.374Z" transform="translate(-15.1 -19.5)" fill="#00acd7"/>
          </g>
        </g>
      </g>
      <g id="Group_322" data-name="Group 322" transform="translate(0 17.873)">
        <g id="Group_321" data-name="Group 321">
          <g id="Group_320" data-name="Group 320">
            <path id="Path_2629" data-name="Path 2629" d="M.249,31.006c-.249,0-.312-.125-.187-.312l1.309-1.683a.893.893,0,0,1,.686-.312H30.475a.286.286,0,0,1,.312.374l-.5,1.5a.545.545,0,0,1-.561.374Z" transform="translate(0 -28.7)" fill="#00acd7"/>
          </g>
        </g>
      </g>
      <g id="Group_325" data-name="Group 325" transform="translate(15.082 23.607)">
        <g id="Group_324" data-name="Group 324">
          <g id="Group_323" data-name="Group 323">
            <path id="Path_2630" data-name="Path 2630" d="M24.449,40.206c-.249,0-.312-.187-.187-.374l.872-1.558a.826.826,0,0,1,.623-.374H38.222c.249,0,.374.187.374.436l-.125,1.5a.468.468,0,0,1-.436.436Z" transform="translate(-24.2 -37.9)" fill="#00acd7"/>
          </g>
        </g>
      </g>
      <g id="Group_329" data-name="Group 329" transform="translate(33.974 -0.034)">
        <g id="CXHf1q_3_">
          <g id="Group_328" data-name="Group 328">
            <g id="Group_326" data-name="Group 326">
              <path id="Path_2631" data-name="Path 2631" d="M100.561,13.324c-3.926,1-6.606,1.745-10.47,2.742-.935.249-1,.312-1.807-.623a8.342,8.342,0,0,0-2.929-2.368c-3.926-1.932-7.728-1.371-11.28.935A13.254,13.254,0,0,0,67.718,25.85a9.77,9.77,0,0,0,8.413,9.784,11.5,11.5,0,0,0,10.595-4.113c.561-.686,1.059-1.433,1.683-2.306H76.38c-1.309,0-1.62-.81-1.184-1.87.81-1.932,2.306-5.173,3.178-6.793a1.683,1.683,0,0,1,1.558-1h22.685c-.125,1.683-.125,3.365-.374,5.048a26.578,26.578,0,0,1-5.11,12.215A25.961,25.961,0,0,1,79.372,47.413,22.075,22.075,0,0,1,62.607,43.3a19.575,19.575,0,0,1-7.915-13.835,24.46,24.46,0,0,1,5.3-18.26A27.656,27.656,0,0,1,77.44.423C83.3-.636,88.907.049,93.955,3.477a19.536,19.536,0,0,1,7.229,8.787C101.558,12.825,101.309,13.137,100.561,13.324Z" transform="translate(-54.515 0.034)" fill="#00acd7"/>
            </g>
            <g id="Group_327" data-name="Group 327" transform="translate(44.423 0.577)">
              <path id="Path_2632" data-name="Path 2632" d="M148.047,48.136a23.379,23.379,0,0,1-15.206-5.484,19.545,19.545,0,0,1-6.731-12.028c-1.122-7.042.81-13.274,5.048-18.821,4.549-5.983,10.034-9.1,17.45-10.408,6.357-1.122,12.34-.5,17.762,3.178a19.4,19.4,0,0,1,8.787,13.9A24.057,24.057,0,0,1,167.99,39.6a28.557,28.557,0,0,1-14.957,7.977C151.35,47.887,149.668,47.949,148.047,48.136ZM162.88,22.959a17.938,17.938,0,0,0-.187-2.057,10.266,10.266,0,0,0-12.714-8.289,13.614,13.614,0,0,0-10.906,10.844,10.264,10.264,0,0,0,5.734,11.779,11.425,11.425,0,0,0,10.158-.374C159.888,32.307,162.568,28.318,162.88,22.959Z" transform="translate(-125.796 -0.892)" fill="#00acd7"/>
            </g>
          </g>
        </g>
      </g>
    </g>
  </g>
</svg>
