<svg xmlns="http://www.w3.org/2000/svg" width="256" height="256" viewBox="0 0 256 256">
  <g id="javascript" transform="translate(-512 -952)">
    <path id="Path_2591" data-name="Path 2591" d="M51.2,0H204.8A51.2,51.2,0,0,1,256,51.2V204.8A51.2,51.2,0,0,1,204.8,256H51.2A51.2,51.2,0,0,1,0,204.8V51.2A51.2,51.2,0,0,1,51.2,0Z" transform="translate(512 952)" fill="rgba(240,219,79,0.2)"/>
    <g id="js" transform="translate(576 1016)">
      <path id="Subtraction_1" data-name="Subtraction 1" d="M-12738-536h-128V-664h128v128Zm-42.018-28h0l-9.773,5.68c2.325,4.592,8.266,12.3,21.918,12.3,12.108,0,19.933-6.579,19.933-16.761,0-10.07-5.863-14.554-15.99-18.9l-3.006-1.288a20.9,20.9,0,0,1-5.634-3.137,5.2,5.2,0,0,1-1.764-4.167c0-3.034,2.367-5.153,5.757-5.153a7.607,7.607,0,0,1,4.394,1.19,10.873,10.873,0,0,1,3.347,3.963l9.367-6.016c-3.785-6.659-9.062-9.629-17.107-9.629-10.373,0-17.617,6.533-17.617,15.886,0,10.52,6.943,14.928,14.446,18.124l3.01,1.292c5.461,2.39,8.757,3.832,8.757,7.985a5.156,5.156,0,0,1-2.215,4.257,9.933,9.933,0,0,1-5.954,1.675,12.329,12.329,0,0,1-7.19-2.073,16.471,16.471,0,0,1-4.676-5.231Zm-42.49,1.043h0l-9.789,5.925c2.37,5.012,7.426,10.988,18.044,10.988,11.583,0,17.962-6.437,17.962-18.124v-41.059h-12.027v40.9c0,2.867-.569,4.841-1.74,6.034-1.021,1.04-2.517,1.525-4.705,1.525a6.435,6.435,0,0,1-4.713-1.836,18.234,18.234,0,0,1-3.03-4.35Z" transform="translate(12866 664)" fill="#f0db4f"/>
    </g>
  </g>
</svg>
