<svg xmlns="http://www.w3.org/2000/svg" width="256" height="256" viewBox="0 0 256 256">
  <g id="mongodb" transform="translate(-512 -952)">
    <path id="Path_2591" data-name="Path 2591" d="M51.2,0H204.8A51.2,51.2,0,0,1,256,51.2V204.8A51.2,51.2,0,0,1,204.8,256H51.2A51.2,51.2,0,0,1,0,204.8V51.2A51.2,51.2,0,0,1,51.2,0Z" transform="translate(512 952)" fill="rgba(16,170,80,0.2)"/>
    <g id="mongodb-2" data-name="mongodb" transform="translate(403.135 76.968)">
      <g id="leaf" transform="translate(208.14 939.032)">
        <path id="Path_58" data-name="Path 58" d="M66.718,56.55C59.976,26.98,45.905,19.106,42.335,13.539A64.645,64.645,0,0,1,38.416,5.91c-.193,2.623-.536,4.284-2.788,6.277C31.12,16.183,11.961,31.7,10.351,65.3c-1.5,31.328,23.157,50.649,26.435,52.645,2.5,1.224,5.569.023,7.035-1.1C55.7,108.738,71.962,87.106,66.7,56.55" transform="translate(-10.286 -5.91)" fill="#10aa50"/>
        <path id="Path_59" data-name="Path 59" d="M103.486,333.11c-.646,8.152-1.112,12.9-2.756,17.545,0,0,1.084,7.757,1.838,15.977h2.686a149.626,149.626,0,0,1,2.931-17.211C104.705,347.715,103.618,340.261,103.486,333.11Z" transform="translate(-74.386 -238.632)" fill="#b8c4c2"/>
        <path id="Path_60" data-name="Path 60" d="M112.711,118.293h0c-3.516-1.543-4.532-8.771-4.689-15.51a301.883,301.883,0,0,0,.75-33.393c-.184-5.842.092-54.122-1.513-61.19a57.464,57.464,0,0,0,3.785,6.952c3.745,5.563,18.433,13.429,25.471,42.97C142,88.566,125.118,110.137,112.711,118.293Z" transform="translate(-80.132 -7.499)" fill="#12924f"/>
      </g>
    </g>
  </g>
</svg>
