<svg xmlns="http://www.w3.org/2000/svg" width="256" height="256" viewBox="0 0 256 256">
  <g id="nextjs" transform="translate(-512 -952)">
    <path id="Path_2591" data-name="Path 2591" d="M51.2,0H204.8A51.2,51.2,0,0,1,256,51.2V204.8A51.2,51.2,0,0,1,204.8,256H51.2A51.2,51.2,0,0,1,0,204.8V51.2A51.2,51.2,0,0,1,51.2,0Z" transform="translate(512 952)" fill="rgba(0,0,0,0.2)"/>
    <path id="nextjs-icon-light" d="M59.808.034c-.275.025-1.151.113-1.939.175A64.154,64.154,0,0,0,11.874,26.732,63.345,63.345,0,0,0,.576,54.692,48.977,48.977,0,0,0,0,64.013a48.977,48.977,0,0,0,.576,9.32,64.259,64.259,0,0,0,43.78,51.705,67.676,67.676,0,0,0,13.513,2.8,117.6,117.6,0,0,0,12.262,0,64.626,64.626,0,0,0,23.06-6.743c1.1-.563,1.314-.713,1.164-.838-.1-.075-4.792-6.368-10.423-13.974L73.7,92.461,60.872,73.483C53.815,63.049,48.009,54.517,47.959,54.517s-.1,8.42-.125,18.716c-.038,18.028-.05,18.753-.275,19.178a2.273,2.273,0,0,1-1.1,1.138c-.4.2-.751.238-2.64.238H41.653l-.575-.363a2.339,2.339,0,0,1-.838-.913l-.263-.563L40,66.865l.038-25.1.388-.488a3.434,3.434,0,0,1,.926-.763c.513-.25.713-.275,2.878-.275,2.553,0,2.978.1,3.641.826.188.2,7.132,10.659,15.44,23.257s19.669,29.8,25.25,38.244L98.7,117.92l.513-.338a65.7,65.7,0,0,0,13.15-11.535,63.7,63.7,0,0,0,15.065-32.715,48.974,48.974,0,0,0,.576-9.32,48.974,48.974,0,0,0-.576-9.32A64.259,64.259,0,0,0,83.644,2.987,67.2,67.2,0,0,0,70.319.2C69.117.072,60.847-.066,59.808.034Zm26.2,38.707a2.525,2.525,0,0,1,1.264,1.476c.1.325.125,7.281.1,22.957l-.037,22.494-3.966-6.08-3.979-6.08V57.157c0-10.571.05-16.514.125-16.8a2.552,2.552,0,0,1,1.239-1.576c.513-.263.7-.288,2.665-.288C85.271,38.491,85.6,38.516,86.009,38.742Z" transform="translate(576 1016)" fill="#fff"/>
  </g>
</svg>
