<svg xmlns="http://www.w3.org/2000/svg" xmlns:xlink="http://www.w3.org/1999/xlink" width="256" height="256" viewBox="0 0 256 256">
  <defs>
    <linearGradient id="linear-gradient" x1="0.402" y1="1.013" x2="0.556" y2="0.426" gradientUnits="objectBoundingBox">
      <stop offset="0" stop-color="#af1df5"/>
      <stop offset="0.21" stop-color="#bc20e4"/>
      <stop offset="0.63" stop-color="#dd29b8"/>
      <stop offset="1" stop-color="#ff318c"/>
    </linearGradient>
    <linearGradient id="linear-gradient-2" x1="-0.163" y1="0.786" x2="1.747" y2="-0.041" gradientUnits="objectBoundingBox">
      <stop offset="0.02" stop-color="#6b57ff"/>
      <stop offset="0.42" stop-color="#b74af7"/>
      <stop offset="0.75" stop-color="#ff318c"/>
    </linearGradient>
    <linearGradient id="linear-gradient-3" x1="0.773" y1="1.022" x2="0.289" y2="-0.037" gradientUnits="objectBoundingBox">
      <stop offset="0" stop-color="#293896"/>
      <stop offset="0.08" stop-color="#3b3aa2"/>
      <stop offset="0.29" stop-color="#6740c0"/>
      <stop offset="0.49" stop-color="#8a44d8"/>
      <stop offset="0.68" stop-color="#a347e9"/>
      <stop offset="0.86" stop-color="#b249f3"/>
      <stop offset="1" stop-color="#b74af7"/>
    </linearGradient>
    <linearGradient id="linear-gradient-4" x1="0.629" y1="0.857" x2="0.397" y2="0.43" gradientUnits="objectBoundingBox">
      <stop offset="0.02" stop-color="#6b57ff"/>
      <stop offset="0.78" stop-color="#b74af7"/>
    </linearGradient>
  </defs>
  <g id="phpstorm" transform="translate(-512 -952)">
    <path id="Path_2591" data-name="Path 2591" d="M51.2,0H204.8A51.2,51.2,0,0,1,256,51.2V204.8A51.2,51.2,0,0,1,204.8,256H51.2A51.2,51.2,0,0,1,0,204.8V51.2A51.2,51.2,0,0,1,51.2,0Z" transform="translate(512 952)" fill="rgba(175,29,245,0.2)"/>
    <g id="PhpStorm_icon" transform="translate(571.5 1010.5)">
      <path id="Path_2677" data-name="Path 2677" d="M75.153,28.007,70.887,15.1,26.34,5.5,4.5,30.207l24,12.28V28.007Z" transform="translate(0 0)" fill="url(#linear-gradient)"/>
      <path id="Path_2678" data-name="Path 2678" d="M28.5,30.23l-24-6.2L16.7,97.31l11.76-.093Z" transform="translate(0 6.177)" fill="url(#linear-gradient-2)"/>
      <path id="Path_2679" data-name="Path 2679" d="M92.937,26.107H51.19L67.963,11.2l32.32,6,16.653,41.387L92.95,82.413Z" transform="translate(15.563 1.9)" fill="url(#linear-gradient-3)"/>
      <path id="Path_2680" data-name="Path 2680" d="M99.707,46.33,99.68,94.4H30.96l1.773,10.453L75.88,119.89l47.8-28.613Z" transform="translate(8.82 13.61)" fill="url(#linear-gradient-4)"/>
      <path id="Path_2681" data-name="Path 2681" d="M22.5,22.5h80v80h-80Z" transform="translate(6 5.667)"/>
      <g id="Group_341" data-name="Group 341" transform="translate(38.473 37.724)">
        <path id="Path_2682" data-name="Path 2682" d="M29.98,71.16h30v5h-30Z" transform="translate(-29.98 -15.837)" fill="#fff"/>
        <path id="Path_2683" data-name="Path 2683" d="M49.6,55.8l3.907-4.68a13.787,13.787,0,0,0,8.987,3.653c2.667,0,4.347-1.08,4.347-2.84v-.08c0-1.68-1.04-2.547-6.067-3.827-6.067-1.547-9.973-3.227-9.973-9.2v-.093c0-5.453,4.387-9.067,10.533-9.067A17.333,17.333,0,0,1,72.507,33.5l-3.44,4.987a14.053,14.053,0,0,0-7.827-2.96c-2.533,0-3.867,1.16-3.867,2.667v.093c0,1.973,1.333,2.667,6.493,4,6.107,1.6,9.547,3.787,9.547,9.027V51.4c0,5.973-4.56,9.333-11.053,9.333A19.133,19.133,0,0,1,49.6,55.924" transform="translate(-23.44 -29.668)" fill="#fff"/>
        <path id="Path_2684" data-name="Path 2684" d="M30,30H42.267c7.147,0,11.48,4.24,11.48,10.36v.08c0,6.933-5.4,10.533-12.12,10.533h-4.96V59.96H30ZM41.813,45.107c3.293,0,5.227-1.96,5.227-4.533v-.08c0-2.96-2.053-4.547-5.333-4.547h-5.04v9.16Z" transform="translate(-29.973 -29.557)" fill="#fff"/>
      </g>
    </g>
  </g>
</svg>
