<svg xmlns="http://www.w3.org/2000/svg" xmlns:xlink="http://www.w3.org/1999/xlink" width="256" height="256" viewBox="0 0 256 256">
  <defs>
    <linearGradient id="linear-gradient" x1="-0.467" y1="0.5" x2="0.905" y2="0.5" gradientUnits="objectBoundingBox">
      <stop offset="0" stop-color="#21d789"/>
      <stop offset="1" stop-color="#07c3f2"/>
    </linearGradient>
    <linearGradient id="linear-gradient-2" x1="-0.537" y1="1.055" x2="1.338" y2="-0.076" gradientUnits="objectBoundingBox">
      <stop offset="0.01" stop-color="#fcf84a"/>
      <stop offset="0.11" stop-color="#a7eb62"/>
      <stop offset="0.21" stop-color="#5fe077"/>
      <stop offset="0.27" stop-color="#32da84"/>
      <stop offset="0.31" stop-color="#21d789"/>
      <stop offset="0.58" stop-color="#21d789"/>
      <stop offset="0.6" stop-color="#21d789"/>
      <stop offset="0.69" stop-color="#20d68c"/>
      <stop offset="0.76" stop-color="#1ed497"/>
      <stop offset="0.83" stop-color="#19d1a9"/>
      <stop offset="0.9" stop-color="#13ccc2"/>
      <stop offset="0.97" stop-color="#0bc6e1"/>
      <stop offset="1" stop-color="#07c3f2"/>
    </linearGradient>
    <linearGradient id="linear-gradient-3" x1="0.307" y1="1.16" x2="0.778" y2="0.223" gradientUnits="objectBoundingBox">
      <stop offset="0" stop-color="#21d789"/>
      <stop offset="0.16" stop-color="#24d888"/>
      <stop offset="0.3" stop-color="#2fd985"/>
      <stop offset="0.43" stop-color="#41dc80"/>
      <stop offset="0.55" stop-color="#5ae079"/>
      <stop offset="0.67" stop-color="#7ae46f"/>
      <stop offset="0.79" stop-color="#a1ea64"/>
      <stop offset="0.9" stop-color="#cff157"/>
      <stop offset="1" stop-color="#fcf84a"/>
    </linearGradient>
    <linearGradient id="linear-gradient-4" x1="-0.097" y1="2.017" x2="1.186" y2="-0.169" gradientUnits="objectBoundingBox">
      <stop offset="0" stop-color="#21d789"/>
      <stop offset="0.09" stop-color="#23d986"/>
      <stop offset="0.17" stop-color="#2ade7b"/>
      <stop offset="0.25" stop-color="#36e669"/>
      <stop offset="0.27" stop-color="#3bea62"/>
      <stop offset="0.35" stop-color="#47eb61"/>
      <stop offset="0.49" stop-color="#67ed5d"/>
      <stop offset="0.69" stop-color="#9af156"/>
      <stop offset="0.92" stop-color="#e0f64d"/>
      <stop offset="1" stop-color="#fcf84a"/>
    </linearGradient>
    <linearGradient id="linear-gradient-5" x1="1.118" y1="0.505" x2="-0.142" y2="0.494" gradientUnits="objectBoundingBox">
      <stop offset="0.39" stop-color="#fcf84a"/>
      <stop offset="0.46" stop-color="#ecf74c"/>
      <stop offset="0.61" stop-color="#c1f451"/>
      <stop offset="0.82" stop-color="#7eef5a"/>
      <stop offset="1" stop-color="#3bea62"/>
    </linearGradient>
  </defs>
  <g id="pycharm" transform="translate(-512 -952)">
    <path id="Path_2591" data-name="Path 2591" d="M51.2,0H204.8A51.2,51.2,0,0,1,256,51.2V204.8A51.2,51.2,0,0,1,204.8,256H51.2A51.2,51.2,0,0,1,0,204.8V51.2A51.2,51.2,0,0,1,51.2,0Z" transform="translate(512 952)" fill="rgba(33,215,137,0.2)"/>
    <g id="PyCharm_icon" transform="translate(571.5 1011.5)">
      <path id="Path_2668" data-name="Path 2668" d="M76.34,19.65l37.4,31.107-13.467,27.4L77.727,71.9H58.22Z" transform="translate(17.907 5.05)" fill="url(#linear-gradient)"/>
      <path id="Path_2669" data-name="Path 2669" d="M56.567,44.9l-7.24,38.307L48.633,96.22,30.38,104.127,4.5,106.913l7.853-82.76L59.247,4.5,88.14,23.447Z" fill="url(#linear-gradient-2)"/>
      <path id="Path_2670" data-name="Path 2670" d="M56.567,34.8l3.52,73.813L48.393,122.4,4.5,96.813,40.54,43.107Z" transform="translate(0 10.1)" fill="url(#linear-gradient-3)"/>
      <path id="Path_2671" data-name="Path 2671" d="M90.857,39.513H46.51L85.7,4.5Z" transform="translate(14.003 0)" fill="url(#linear-gradient-4)"/>
      <path id="Path_2672" data-name="Path 2672" d="M123.257,111,84.217,124.25,32.23,109.61,47.323,36.89,53.35,31.5,85,28.53,82.137,60.317l25.173-9.76Z" transform="translate(9.243 8.01)" fill="url(#linear-gradient-5)"/>
      <path id="Path_2673" data-name="Path 2673" d="M22.5,22.5h80v80h-80Z" transform="translate(6 6)"/>
      <g id="Group_340" data-name="Group 340" transform="translate(38.473 37.987)">
        <path id="Path_2674" data-name="Path 2674" d="M29.98,71.16h30v5h-30Z" transform="translate(-29.98 -15.767)" fill="#fff"/>
        <path id="Path_2675" data-name="Path 2675" d="M30,30H42.267c7.147,0,11.48,4.24,11.48,10.36v.08c0,6.933-5.4,10.533-12.12,10.533h-4.96V59.96H30ZM41.813,45.107c3.293,0,5.227-1.96,5.227-4.533v-.08c0-2.96-2.053-4.547-5.333-4.547h-5.04v9.16Z" transform="translate(-29.973 -29.487)" fill="#fff"/>
        <path id="Path_2676" data-name="Path 2676" d="M50.491,45.208v-.08A15.213,15.213,0,0,1,66.1,29.635a15.453,15.453,0,0,1,11.813,4.613l-4.187,4.84A11.107,11.107,0,0,0,66.064,35.7c-5.053,0-8.693,4.2-8.693,9.333v.093c0,5.133,3.56,9.413,8.693,9.413,3.427,0,5.52-1.333,7.88-3.507l4.187,4.227a15.28,15.28,0,0,1-12.28,5.333,15.133,15.133,0,0,1-15.36-15.387" transform="translate(-23.144 -29.615)" fill="#fff"/>
      </g>
    </g>
  </g>
</svg>
