<svg xmlns="http://www.w3.org/2000/svg" width="256" height="256" viewBox="0 0 256 256">
  <g id="react" transform="translate(-512 -952)">
    <path id="Path_2591" data-name="Path 2591" d="M51.2,0H204.8A51.2,51.2,0,0,1,256,51.2V204.8A51.2,51.2,0,0,1,204.8,256H51.2A51.2,51.2,0,0,1,0,204.8V51.2A51.2,51.2,0,0,1,51.2,0Z" transform="translate(512 952)" fill="rgba(97,218,251,0.2)"/>
    <g id="react_logo" transform="translate(591.708 1028.309)">
      <circle id="Ellipse_4" data-name="Ellipse 4" cx="10.659" cy="10.659" r="10.659" transform="translate(37.634 41.032)" fill="#61dafb"/>
      <g id="Group_295" data-name="Group 295" transform="translate(-11.5 -12.309)">
        <path id="Ellipse_5" data-name="Ellipse 5" d="M59.292-.5c15.586,0,30.277,2.332,41.369,6.567,11.881,4.536,18.424,10.883,18.424,17.87s-6.543,13.334-18.424,17.87c-11.091,4.235-25.783,6.567-41.369,6.567s-30.277-2.332-41.369-6.567C6.043,37.27-.5,30.924-.5,23.937S6.043,10.6,17.924,6.067C29.015,1.832,43.706-.5,59.292-.5Zm0,43.674c14.968,0,29-2.211,39.514-6.225,9.583-3.659,15.079-8.4,15.079-13.013s-5.5-9.354-15.079-13.013C88.293,6.91,74.26,4.7,59.292,4.7s-29,2.211-39.514,6.225C10.2,14.583,4.7,19.326,4.7,23.937s5.5,9.354,15.079,13.013C30.292,40.964,44.325,43.174,59.292,43.174Z" transform="translate(0.5 40.063)" fill="#61dafb"/>
        <path id="Ellipse_6" data-name="Ellipse 6" d="M59.792,0C75.378,0,90.07,2.332,101.161,6.567c11.881,4.536,18.424,10.883,18.424,17.87s-6.543,13.334-18.424,17.87c-11.091,4.235-25.783,6.567-41.369,6.567s-30.277-2.332-41.369-6.567C6.543,37.77,0,31.424,0,24.437S6.543,11.1,18.424,6.567C29.515,2.332,44.206,0,59.792,0Zm0,43.674c14.968,0,29-2.211,39.514-6.225,9.583-3.659,15.079-8.4,15.079-13.013s-5.5-9.354-15.079-13.013C88.793,7.41,74.76,5.2,59.792,5.2s-29,2.211-39.514,6.225C10.7,15.083,5.2,19.826,5.2,24.437s5.5,9.354,15.079,13.013C30.792,41.464,44.825,43.674,59.792,43.674Z" transform="translate(51.059 0) rotate(60)" fill="#61dafb"/>
        <path id="Ellipse_7" data-name="Ellipse 7" d="M59.792,0C75.378,0,90.07,2.332,101.161,6.567c11.881,4.536,18.424,10.883,18.424,17.87s-6.543,13.334-18.424,17.87c-11.091,4.235-25.783,6.567-41.369,6.567s-30.277-2.332-41.369-6.567C6.543,37.77,0,31.424,0,24.437S6.543,11.1,18.424,6.567C29.515,2.332,44.206,0,59.792,0Zm0,43.674c14.968,0,29-2.211,39.514-6.225,9.583-3.659,15.079-8.4,15.079-13.013s-5.5-9.354-15.079-13.013C88.793,7.41,74.76,5.2,59.792,5.2s-29,2.211-39.514,6.225C10.7,15.083,5.2,19.826,5.2,24.437s5.5,9.354,15.079,13.013C30.792,41.464,44.825,43.674,59.792,43.674Z" transform="translate(110.851 24.437) rotate(120)" fill="#61dafb"/>
      </g>
    </g>
  </g>
</svg>
