<svg xmlns="http://www.w3.org/2000/svg" width="256" height="256" viewBox="0 0 256 256">
  <g id="redis" transform="translate(-512 -952)">
    <path id="Path_2591" data-name="Path 2591" d="M51.2,0H204.8A51.2,51.2,0,0,1,256,51.2V204.8A51.2,51.2,0,0,1,204.8,256H51.2A51.2,51.2,0,0,1,0,204.8V51.2A51.2,51.2,0,0,1,51.2,0Z" transform="translate(512 952)" fill="rgba(198,48,43,0.2)"/>
    <g id="redis_logo" transform="translate(576 1024.769)">
      <path id="Path_2609" data-name="Path 2609" d="M122.985,137.764c-6.831,3.56-42.217,18.11-49.751,22.037s-11.718,3.89-17.67,1.045-43.608-18.056-50.391-21.3C1.783,137.928,0,136.56,0,135.268V122.33s49.025-10.673,56.939-13.512,10.66-2.942,17.4-.475,47.009,9.734,53.665,12.172l0,12.755c0,1.279-1.535,2.682-5.012,4.494" transform="translate(0 -53)" fill="#912626"/>
      <path id="Path_2610" data-name="Path 2610" d="M122.983,114.546c-6.83,3.559-42.215,18.109-49.749,22.036s-11.718,3.89-17.669,1.045-43.607-18.057-50.39-21.3-6.925-5.474-.262-8.083,44.112-17.3,52.027-20.142,10.66-2.942,17.395-.474,41.91,16.467,48.565,18.9,6.914,4.45.083,8.01" transform="translate(0 -42.644)" fill="#c6302b"/>
      <path id="Path_2611" data-name="Path 2611" d="M122.985,95.895c-6.831,3.561-42.217,18.11-49.751,22.039s-11.718,3.889-17.67,1.044-43.608-18.056-50.391-21.3C1.783,96.059,0,94.693,0,93.4V80.461S49.025,69.789,56.939,66.949s10.66-2.943,17.4-.475S121.344,76.206,128,78.645L128,91.4c0,1.278-1.535,2.681-5.012,4.493" transform="translate(0 -32.066)" fill="#912626"/>
      <path id="Path_2612" data-name="Path 2612" d="M122.983,72.677c-6.83,3.56-42.215,18.109-49.749,22.037S61.516,98.6,55.565,95.758,11.958,77.7,5.175,74.461s-6.925-5.473-.262-8.083,44.113-17.3,52.027-20.141,10.66-2.942,17.395-.474,41.91,16.466,48.565,18.9,6.914,4.45.083,8.01" transform="translate(0 -21.71)" fill="#c6302b"/>
      <path id="Path_2613" data-name="Path 2613" d="M122.985,52.475c-6.831,3.56-42.217,18.11-49.751,22.039S61.516,78.4,55.564,75.557,11.956,57.5,5.173,54.26C1.783,52.638,0,51.272,0,49.981V37.041S49.025,26.369,56.939,23.53s10.66-2.942,17.4-.475S121.344,32.787,128,35.226l0,12.756c0,1.278-1.535,2.681-5.012,4.493" transform="translate(0 -10.356)" fill="#912626"/>
      <path id="Path_2614" data-name="Path 2614" d="M122.983,29.257c-6.83,3.56-42.215,18.11-49.749,22.037s-11.718,3.888-17.669,1.045S11.958,34.282,5.175,31.041s-6.925-5.473-.262-8.083S49.025,5.657,56.94,2.817,67.6-.124,74.335,2.343,116.244,18.81,122.9,21.249s6.914,4.448.083,8.008" transform="translate(0 0)" fill="#c6302b"/>
      <path id="Path_2615" data-name="Path 2615" d="M100.952,23.4l-11,1.142-2.463,5.928L83.5,23.857,70.8,22.715,80.28,19.3l-2.845-5.249,8.878,3.472,8.369-2.74-2.262,5.427,8.534,3.2M86.827,52.161,66.288,43.642l29.43-4.517L86.827,52.161M58.352,26.7c8.687,0,15.73,2.73,15.73,6.1s-7.043,6.1-15.73,6.1-15.73-2.73-15.73-6.1,7.042-6.1,15.73-6.1" transform="translate(-21.311 -6.731)" fill="#fff"/>
      <path id="Path_2616" data-name="Path 2616" d="M185.295,36l17.418,6.883-17.4,6.876L185.295,36" transform="translate(-92.647 -17.706)" fill="#621b1c"/>
      <path id="Path_2617" data-name="Path 2617" d="M146.755,43.62,166.025,36l.015,13.759-1.89.739-17.4-6.876" transform="translate(-73.378 -17.707)" fill="#9a2928"/>
    </g>
  </g>
</svg>
