<svg xmlns="http://www.w3.org/2000/svg" width="256" height="256" viewBox="0 0 256 256">
  <g id="rust" transform="translate(-512 -952)">
    <path id="Path_2591" data-name="Path 2591" d="M51.2,0H204.8A51.2,51.2,0,0,1,256,51.2V204.8A51.2,51.2,0,0,1,204.8,256H51.2A51.2,51.2,0,0,1,0,204.8V51.2A51.2,51.2,0,0,1,51.2,0Z" transform="translate(512 952)" fill="rgba(244,102,35,0.2)"/>
    <g id="Rust_Logo" data-name="Rust Logo" transform="translate(555.7 995.8)">
      <path id="Path_2596" data-name="Path 2596" d="M84.3,23.68A60.52,60.52,0,1,0,144.82,84.2,60.6,60.6,0,0,0,84.3,23.68Zm-.09,5.377a3.982,3.982,0,1,1-2.89,1.125,3.976,3.976,0,0,1,2.89-1.125Zm9.116,6.555A49,49,0,0,1,126.87,59.5l-4.7,10.6a3.662,3.662,0,0,0,1.844,4.8l9.039,4.007a49,49,0,0,1,.1,8.5h-5.032c-.5,0-.7.333-.7.819v2.3c0,5.428-3.06,6.619-5.749,6.914-2.561.294-5.39-1.075-5.749-2.637-1.511-8.488-4.02-10.294-7.989-13.43,4.929-3.124,10.05-7.746,10.05-13.917,0-6.67-4.571-10.87-7.682-12.931a21.848,21.848,0,0,0-10.524-3.457H47.8A49,49,0,0,1,75.21,35.612l6.133,6.427a3.61,3.61,0,0,0,5.121.115ZM36.737,65.085a3.982,3.982,0,1,1-2.89,1.125A3.982,3.982,0,0,1,36.737,65.085Zm94.935.179a3.982,3.982,0,1,1-2.89,1.125A3.982,3.982,0,0,1,131.671,65.264Zm-87.432.64h6.939V97.2H37.172A49,49,0,0,1,35.584,78.49l8.578-3.815a3.626,3.626,0,0,0,1.844-4.788Zm28.96.333H89.729c.858,0,6.03.986,6.03,4.865,0,3.214-3.969,4.366-7.234,4.366H73.187Zm0,22.482H85.862c1.152,0,6.184.333,7.784,6.76.5,1.972,1.613,8.4,2.369,10.46.755,2.3,3.815,6.914,7.08,6.914h20.664a49,49,0,0,1-4.532,5.249l-8.412-1.805a3.637,3.637,0,0,0-4.315,2.791l-2,9.321a49,49,0,0,1-40.855-.192l-2-9.321a3.624,3.624,0,0,0-4.3-2.791l-8.232,1.767a49,49,0,0,1-4.251-5.019H84.9c.448,0,.755-.077.755-.5V98.194c0-.41-.307-.5-.755-.5H73.187ZM54.725,121.15a3.982,3.982,0,1,1-2.89,1.125,3.982,3.982,0,0,1,2.89-1.125Zm58.958.179a3.982,3.982,0,1,1-2.89,1.125,3.982,3.982,0,0,1,2.89-1.125Z" fill="#f46623"/>
      <path id="Path_2597" data-name="Path 2597" d="M140.582,84.2A56.282,56.282,0,1,1,84.3,27.918,56.282,56.282,0,0,1,140.582,84.2Zm-1.059-5.435L148.3,84.2l-8.777,5.435,7.541,7.049L137.4,100.3l6.028,8.386-10.2,1.665,4.288,9.408-10.328-.366,2.371,10.063L119.5,127.089l.366,10.328-9.408-4.288-1.665,10.2L100.4,137.3l-3.619,9.66-7.049-7.541L84.3,148.2l-5.435-8.777-7.049,7.541L68.2,137.3l-8.386,6.028-1.665-10.2-9.408,4.288.366-10.328L39.04,129.46,41.411,119.4l-10.328.366,4.288-9.408-10.2-1.665L31.2,100.3l-9.66-3.619,7.541-7.049L20.3,84.2l8.777-5.435-7.541-7.049L31.2,68.1,25.168,59.71l10.2-1.665-4.288-9.408L41.411,49,39.04,38.94,49.1,41.311l-.366-10.328,9.408,4.288,1.665-10.2L68.2,31.1l3.619-9.66,7.049,7.541L84.3,20.2l5.435,8.777,7.049-7.541L100.4,31.1l8.386-6.028,1.665,10.2,9.408-4.288L119.5,41.311,129.56,38.94,127.189,49l10.328-.366-4.288,9.408,10.2,1.665L137.4,68.1l9.66,3.619Z" fill="#f46623" fill-rule="evenodd"/>
      <path id="Path_2597_-_Outline" data-name="Path 2597 - Outline" d="M84.3,18.7a1.5,1.5,0,0,1,1.275.71l4.4,7.11,5.711-6.109a1.5,1.5,0,0,1,2.5.5l2.931,7.824,6.794-4.884a1.5,1.5,0,0,1,2.356.976l1.348,8.265,7.621-3.474a1.5,1.5,0,0,1,2.121,1.418l-.3,8.365,8.151-1.92a1.5,1.5,0,0,1,1.8,1.8l-1.92,8.151,8.365-.3a1.5,1.5,0,0,1,1.418,2.121l-3.474,7.621,8.265,1.348a1.5,1.5,0,0,1,.976,2.356l-4.884,6.794,7.824,2.931a1.5,1.5,0,0,1,.5,2.5l-6.109,5.711,7.11,4.4a1.5,1.5,0,0,1,0,2.551l-7.11,4.4,6.109,5.711a1.5,1.5,0,0,1-.5,2.5l-7.824,2.931,4.884,6.794a1.5,1.5,0,0,1-.976,2.356l-8.265,1.348,3.474,7.621a1.5,1.5,0,0,1-1.418,2.121l-8.365-.3,1.92,8.151a1.5,1.5,0,0,1-1.8,1.8L121.065,129l.3,8.365a1.5,1.5,0,0,1-2.121,1.418l-7.621-3.474-1.348,8.265a1.5,1.5,0,0,1-2.356.976l-6.794-4.884-2.931,7.824a1.5,1.5,0,0,1-2.5.5l-5.711-6.109-4.4,7.11a1.5,1.5,0,0,1-2.551,0l-4.4-7.11-5.711,6.109a1.5,1.5,0,0,1-2.5-.5l-2.931-7.824-6.794,4.884a1.5,1.5,0,0,1-2.356-.976l-1.349-8.265-7.621,3.474a1.5,1.5,0,0,1-2.121-1.418l.3-8.365-8.151,1.92a1.5,1.5,0,0,1-1.8-1.8l1.92-8.151-8.365.3a1.5,1.5,0,0,1-1.418-2.121l3.474-7.621-8.265-1.349a1.5,1.5,0,0,1-.976-2.356l4.884-6.794L21.01,98.089a1.5,1.5,0,0,1-.5-2.5l6.109-5.711-7.11-4.4a1.5,1.5,0,0,1,0-2.551l7.11-4.4-6.109-5.711a1.5,1.5,0,0,1,.5-2.5l7.824-2.931L23.95,60.585a1.5,1.5,0,0,1,.976-2.356l8.265-1.348L29.717,49.26a1.5,1.5,0,0,1,1.418-2.121l8.365.3-1.92-8.151a1.5,1.5,0,0,1,1.8-1.8l8.151,1.92-.3-8.365a1.5,1.5,0,0,1,2.121-1.418l7.621,3.474,1.348-8.265a1.5,1.5,0,0,1,2.356-.976l6.794,4.884,2.931-7.824a1.5,1.5,0,0,1,2.5-.5l5.711,6.109,4.4-7.11A1.5,1.5,0,0,1,84.3,18.7Zm2.11,7.756L84.3,23.049l-2.11,3.407Q84.3,26.38,86.41,26.456Zm11.219,1.508-1.4-3.736L93.5,27.147Q95.579,27.48,97.629,27.963ZM75.1,27.147l-2.729-2.92-1.4,3.736Q73.018,27.481,75.1,27.147Zm33.243,4.5L107.7,27.7l-3.245,2.332Q106.426,30.765,108.343,31.643Zm-44.2-1.612L60.9,27.7l-.644,3.944Q62.17,30.767,64.145,30.031Zm24.19-.467c-1.338-.1-2.691-.146-4.034-.146s-2.7.049-4.034.146l-.126.2A1.5,1.5,0,0,1,77.769,30l-.167-.178a54.74,54.74,0,0,0-7.914,1.565l-.088.234a1.5,1.5,0,0,1-2.28.692l-.2-.147a54.624,54.624,0,0,0-7.448,3.088l-.042.257a1.5,1.5,0,0,1-2.1,1.123l-.234-.106a55.076,55.076,0,0,0-6.7,4.483l.009.246a1.5,1.5,0,0,1-1.843,1.513l-.238-.056a55.316,55.316,0,0,0-5.707,5.707l.056.238A1.5,1.5,0,0,1,41.357,50.5l-.246-.009a55.074,55.074,0,0,0-4.483,6.7l.106.234a1.5,1.5,0,0,1-1.123,2.1l-.257.042a54.623,54.623,0,0,0-3.088,7.448l.147.2a1.5,1.5,0,0,1-.692,2.28l-.234.088A54.741,54.741,0,0,0,29.923,77.5l.178.167a1.5,1.5,0,0,1-.235,2.371l-.2.126c-.1,1.338-.146,2.691-.146,4.034s.049,2.7.146,4.034l.2.126a1.5,1.5,0,0,1,.235,2.371l-.178.167a54.742,54.742,0,0,0,1.565,7.914l.234.088a1.5,1.5,0,0,1,.692,2.28l-.147.2a54.621,54.621,0,0,0,3.088,7.448l.257.042a1.5,1.5,0,0,1,1.123,2.1l-.106.234a55.072,55.072,0,0,0,4.483,6.7l.246-.009a1.5,1.5,0,0,1,1.513,1.843l-.056.238a55.316,55.316,0,0,0,5.707,5.707l.238-.056a1.5,1.5,0,0,1,1.843,1.513l-.009.246a55.071,55.071,0,0,0,6.7,4.483l.234-.107a1.5,1.5,0,0,1,2.1,1.123l.042.257a54.622,54.622,0,0,0,7.448,3.088l.2-.147a1.5,1.5,0,0,1,2.28.692l.088.234a54.742,54.742,0,0,0,7.914,1.565l.167-.178a1.5,1.5,0,0,1,2.371.235l.126.2c1.338.1,2.691.146,4.034.146s2.7-.049,4.034-.146l.126-.2a1.5,1.5,0,0,1,2.371-.235l.167.178a54.739,54.739,0,0,0,7.914-1.565l.088-.234a1.5,1.5,0,0,1,2.28-.692l.2.147a54.625,54.625,0,0,0,7.448-3.088l.042-.257a1.5,1.5,0,0,1,2.1-1.123l.234.107a55.077,55.077,0,0,0,6.7-4.483l-.009-.246a1.5,1.5,0,0,1,1.843-1.513l.238.056a55.318,55.318,0,0,0,5.707-5.707l-.056-.238a1.5,1.5,0,0,1,1.513-1.843l.246.009a55.074,55.074,0,0,0,4.483-6.7l-.106-.234a1.5,1.5,0,0,1,1.123-2.1l.257-.042a54.625,54.625,0,0,0,3.088-7.448l-.147-.2a1.5,1.5,0,0,1,.692-2.28l.234-.088a54.744,54.744,0,0,0,1.565-7.914l-.178-.167a1.5,1.5,0,0,1,.235-2.371l.2-.126c.1-1.338.146-2.691.146-4.034s-.049-2.7-.146-4.034l-.2-.126a1.5,1.5,0,0,1-.235-2.371l.178-.167a54.74,54.74,0,0,0-1.565-7.914l-.234-.088a1.5,1.5,0,0,1-.692-2.28l.147-.2a54.625,54.625,0,0,0-3.088-7.448l-.257-.042a1.5,1.5,0,0,1-1.123-2.1l.106-.234a55.075,55.075,0,0,0-4.483-6.7l-.246.009a1.5,1.5,0,0,1-1.513-1.843l.056-.238a55.317,55.317,0,0,0-5.707-5.707l-.238.056A1.5,1.5,0,0,1,118,41.257l.009-.246a55.075,55.075,0,0,0-6.7-4.483l-.234.106a1.5,1.5,0,0,1-2.1-1.123l-.042-.257a54.626,54.626,0,0,0-7.448-3.088l-.2.147A1.5,1.5,0,0,1,99,31.622l-.088-.234A54.743,54.743,0,0,0,91,29.823L90.831,30a1.5,1.5,0,0,1-2.371-.235Zm29.8,7.792.142-4-3.642,1.66Q116.426,36.12,118.136,37.356ZM53.964,35.013l-3.642-1.66.142,4Q52.171,36.121,53.964,35.013Zm-9,6.863-3.907-.92.92,3.907Q43.414,43.316,44.962,41.876Zm81.662,2.986.92-3.907-3.907.92Q125.184,43.314,126.624,44.862Zm6.863,9,1.66-3.642-4,.142Q132.379,52.071,133.487,53.864Zm-96.031-3.5-4-.142,1.66,3.642Q36.22,52.074,37.456,50.364ZM30.131,64.045q.734-1.971,1.612-3.888L27.8,60.8ZM140.8,60.8l-3.944-.644q.876,1.914,1.612,3.888Zm3.472,11.471-3.736-1.4q.483,2.046.817,4.129ZM27.247,75q.333-2.08.817-4.129l-3.736,1.4ZM26.556,86.31c-.025-.7-.038-1.408-.038-2.11s.013-1.406.038-2.11L23.149,84.2Zm118.9-2.11-3.407-2.11c.025.7.038,1.408.038,2.11s-.013,1.406-.038,2.11Zm-1.178,11.929-2.92-2.729q-.333,2.08-.817,4.129Zm-116.209,1.4q-.483-2.046-.817-4.129l-2.92,2.729ZM140.8,107.6l-2.332-3.245q-.734,1.971-1.612,3.888Zm-109.058.644q-.876-1.914-1.612-3.888L27.8,107.6Zm103.4,9.934-1.66-3.642q-1.107,1.79-2.343,3.5Zm-97.691-.142q-1.235-1.707-2.343-3.5l-1.66,3.642Zm90.088,9.408-.92-3.907q-1.438,1.546-2.986,2.986Zm-82.582-.92q-1.546-1.438-2.986-2.986l-.92,3.907Zm73.315,8.523-.142-4q-1.707,1.235-3.5,2.343Zm-64.314-1.66q-1.79-1.107-3.5-2.343l-.142,4ZM107.7,140.7l.644-3.944q-1.914.876-3.888,1.612Zm-43.555-2.332q-1.971-.734-3.888-1.612L60.9,140.7Zm32.084,5.8,1.4-3.736q-2.046.483-4.129.817ZM75.1,141.253q-2.08-.333-4.129-.817l1.4,3.736Zm9.2,4.1,2.11-3.407q-2.111.076-4.219,0Z" fill="#f46623"/>
    </g>
  </g>
</svg>
