<svg xmlns="http://www.w3.org/2000/svg" width="256" height="256" viewBox="0 0 256 256">
  <g id="typescript" transform="translate(-512 -952)">
    <path id="Path_2591" data-name="Path 2591" d="M51.2,0H204.8A51.2,51.2,0,0,1,256,51.2V204.8A51.2,51.2,0,0,1,204.8,256H51.2A51.2,51.2,0,0,1,0,204.8V51.2A51.2,51.2,0,0,1,51.2,0Z" transform="translate(512 952)" fill="rgba(49,120,198,0.2)"/>
    <g id="typescript_logo" transform="translate(576 1016)">
      <path id="Path_2627" data-name="Path 2627" d="M12.5,0h103A12.5,12.5,0,0,1,128,12.5v103A12.5,12.5,0,0,1,115.5,128H12.5A12.5,12.5,0,0,1,0,115.5V12.5A12.5,12.5,0,0,1,12.5,0Z" fill="#3178c6"/>
      <path id="Path_2626" data-name="Path 2626" d="M167.75,279.83v12.5a26.845,26.845,0,0,0,7.25,2.35,47.28,47.28,0,0,0,8.75.775,40.844,40.844,0,0,0,8.5-.85,21.564,21.564,0,0,0,7-2.75,12.361,12.361,0,0,0,4.75-5.25,18.9,18.9,0,0,0,1.775-8,16.486,16.486,0,0,0-1.025-6,11.778,11.778,0,0,0-3-4.5,19.855,19.855,0,0,0-4.5-3.5,55.823,55.823,0,0,0-6-3c-1.65-.675-3-1.325-4.5-1.975a19.51,19.51,0,0,1-3.25-1.95,8.923,8.923,0,0,1-2.125-2.1,4.39,4.39,0,0,1-.75-2.5,4.191,4.191,0,0,1,.675-2.325,5.85,5.85,0,0,1,1.875-1.775,9.761,9.761,0,0,1,3-1.15,17.458,17.458,0,0,1,4-.4,23.083,23.083,0,0,1,3.25.235,26.816,26.816,0,0,1,3.5.725,27.774,27.774,0,0,1,3.5,1.225,16.517,16.517,0,0,1,3,1.725V239.59a30.883,30.883,0,0,0-6.25-1.625,50.126,50.126,0,0,0-7.75-.525,37.69,37.69,0,0,0-8.5.95,19.787,19.787,0,0,0-7,3,14.4,14.4,0,0,0-4.75,5.25,14.861,14.861,0,0,0-1.75,7.5,14.092,14.092,0,0,0,3.25,9.5c2.15,2.75,5.5,4.75,9.75,6.75,1.725.7,3.25,1.4,4.75,2.075a21.329,21.329,0,0,1,3.75,2.1,9.16,9.16,0,0,1,2.5,2.375,4.935,4.935,0,0,1,.95,3,4.649,4.649,0,0,1-.575,2.25,4.92,4.92,0,0,1-1.775,1.8,10.139,10.139,0,0,1-3,1.2,18.275,18.275,0,0,1-4.25.425,22.662,22.662,0,0,1-8-1.425,23.76,23.76,0,0,1-7.5-4.25Zm-21-30.75h16V238.83H118v10.25h16v45.75h12.75Z" transform="translate(-88.5 -178.08)" fill="#fff" fill-rule="evenodd"/>
    </g>
  </g>
</svg>
