<svg xmlns="http://www.w3.org/2000/svg" width="256" height="256" viewBox="0 0 256 256">
  <g id="vscode" transform="translate(-512 -952)">
    <path id="Path_2591" data-name="Path 2591" d="M51.2,0H204.8A51.2,51.2,0,0,1,256,51.2V204.8A51.2,51.2,0,0,1,204.8,256H51.2A51.2,51.2,0,0,1,0,204.8V51.2A51.2,51.2,0,0,1,51.2,0Z" transform="translate(512 952)" fill="rgba(0,133,209,0.2)"/>
    <g id="vscode-2" data-name="vscode" transform="translate(576.062 1016.112)">
      <path id="Path_2642" data-name="Path 2642" d="M123.41,13.738,97.053,1.048a7.968,7.968,0,0,0-9.091,1.545L1.678,81.263a5.33,5.33,0,0,0,.006,7.882l7.048,6.407a5.33,5.33,0,0,0,6.807.3L119.444,17.03a5.293,5.293,0,0,1,8.493,4.217v-.306A8,8,0,0,0,123.41,13.738Z" transform="translate(0 0)" fill="#0065a9"/>
      <g id="Group_334" data-name="Group 334" transform="translate(-0.061 30.836)">
        <path id="Path_2643" data-name="Path 2643" d="M123.41,107.363,97.053,120.054a7.968,7.968,0,0,1-9.091-1.545L1.678,39.838a5.33,5.33,0,0,1,.006-7.883l7.048-6.407a5.33,5.33,0,0,1,6.807-.3l103.905,78.825a5.293,5.293,0,0,0,8.493-4.217v.306A8,8,0,0,1,123.41,107.363Z" transform="translate(0.061 -24.162)" fill="#007acc"/>
      </g>
      <g id="Group_335" data-name="Group 335" transform="translate(87.962 0.258)">
        <path id="Path_2644" data-name="Path 2644" d="M77.842,126.73a7.971,7.971,0,0,1-9.092-1.547,4.683,4.683,0,0,0,7.995-3.312V5.9A4.683,4.683,0,0,0,68.75,2.593a7.972,7.972,0,0,1,9.092-1.547l26.353,12.673a8,8,0,0,1,4.53,7.205v85.929a8,8,0,0,1-4.53,7.205Z" transform="translate(-68.75 -0.258)" fill="#1f9cf0"/>
      </g>
      <g id="Group_336" data-name="Group 336" transform="translate(-0.061 0.258)" opacity="0.25">
        <path id="Path_2645" data-name="Path 2645" d="M90.649,126.974a7.962,7.962,0,0,0,6.346-.244l26.336-12.673a8,8,0,0,0,4.527-7.205V20.924a8,8,0,0,0-4.527-7.205L96.995,1.046a7.961,7.961,0,0,0-9.087,1.547l-50.418,46L15.529,31.92a5.324,5.324,0,0,0-6.8.3L1.683,38.63a5.332,5.332,0,0,0-.006,7.883L20.722,63.888,1.677,81.263a5.332,5.332,0,0,0,.006,7.882l7.044,6.407a5.324,5.324,0,0,0,6.8.3L37.49,79.185l50.418,46A7.954,7.954,0,0,0,90.649,126.974ZM95.9,34.849,57.643,63.888,95.9,92.927Z" transform="translate(0.061 -0.258)" fill="#fff" fill-rule="evenodd"/>
      </g>
    </g>
  </g>
</svg>
