<svg xmlns="http://www.w3.org/2000/svg" width="256" height="256" viewBox="0 0 256 256">
  <g id="youtube" transform="translate(-512 -952)">
    <path id="Path_2591" data-name="Path 2591" d="M51.2,0H204.8A51.2,51.2,0,0,1,256,51.2V204.8A51.2,51.2,0,0,1,204.8,256H51.2A51.2,51.2,0,0,1,0,204.8V51.2A51.2,51.2,0,0,1,51.2,0Z" transform="translate(512 952)" fill="rgba(255,0,0,0.2)"/>
    <g id="youtube_logo" transform="translate(574.764 1034.846)">
      <path id="Path_2727" data-name="Path 2727" d="M126.4,14.415A16.018,16.018,0,0,0,115.089,3.108c-7.406-2.859-79.144-4.26-99.954.082A16.018,16.018,0,0,0,3.828,14.5C.485,29.162.231,60.869,3.91,75.862A16.018,16.018,0,0,0,15.216,87.168c14.665,3.376,84.388,3.851,99.954,0a16.018,16.018,0,0,0,11.306-11.306C130.041,59.886,130.295,30.145,126.4,14.415Z" transform="translate(0 0)" fill="red"/>
      <path id="Path_2728" data-name="Path 2728" d="M97.627,50.772,64.2,31.6V69.943Z" transform="translate(-11.378 -5.633)" fill="#fff"/>
    </g>
  </g>
</svg>
