<svg xmlns="http://www.w3.org/2000/svg" width="256" height="256" viewBox="0 0 256 256">
  <g id="illustrator" transform="translate(-512 -952)">
    <path id="Path_2591" data-name="Path 2591" d="M51.2,0H204.8A51.2,51.2,0,0,1,256,51.2V204.8A51.2,51.2,0,0,1,204.8,256H51.2A51.2,51.2,0,0,1,0,204.8V51.2A51.2,51.2,0,0,1,51.2,0Z" transform="translate(512 952)" fill="rgba(255,154,0,0.2)"/>
    <g id="Layer_2" data-name="Layer 2" transform="translate(574.359 1016)">
      <g id="Layer_1" data-name="Layer 1" transform="translate(0 0)">
        <g id="Layer_2-2" data-name="Layer 2">
          <g id="Surfaces">
            <g id="Drawing_Surface" data-name="Drawing Surface">
              <g id="Outline_no_shadow" data-name="Outline no shadow">
                <path id="Path_2724" data-name="Path 2724" d="M23.248,0h84.786a23.226,23.226,0,0,1,23.248,23.248v81.5A23.226,23.226,0,0,1,108.034,128H23.248A23.226,23.226,0,0,1,0,104.752v-81.5A23.226,23.226,0,0,1,23.248,0Z" transform="translate(0 0)" fill="#300"/>
              </g>
            </g>
          </g>
          <g id="Outlined_Mnemonics_Logos" data-name="Outlined Mnemonics Logos" transform="translate(27.126 28.389)">
            <g id="Ai">
              <path id="Path_2725" data-name="Path 2725" d="M86.081,103.934H65.732l-4.157,12.855a.957.957,0,0,1-1.039.766H50.252c-.6,0-.766-.328-.6-.985L67.264,65.862c.164-.547.328-1.149.547-1.805a19.107,19.107,0,0,0,.328-3.556.547.547,0,0,1,.438-.6H82.744c.438,0,.656.164.711.438l19.966,56.342c.164.6,0,.875-.547.875H91.442a.826.826,0,0,1-.875-.6ZM68.9,92.83H82.8c-.328-1.149-.766-2.516-1.258-3.938s-.985-3.063-1.477-4.7-1.039-3.337-1.586-5.032S77.438,75.873,77,74.286s-.821-2.954-1.2-4.267h-.109a67.163,67.163,0,0,1-1.86,7.056c-.821,2.626-1.641,5.361-2.516,8.1C70.546,87.961,69.725,90.532,68.9,92.83Z" transform="translate(-49.59 -55.524)" fill="#ff9a00"/>
              <path id="Path_2726" data-name="Path 2726" d="M164.225,65.63a6.772,6.772,0,0,1-4.868-1.915,7.111,7.111,0,0,1-1.86-5.032,6.438,6.438,0,0,1,1.969-4.868,7.007,7.007,0,0,1,4.868-1.915,6.55,6.55,0,0,1,4.978,1.915,7.52,7.52,0,0,1-.109,9.9A6.433,6.433,0,0,1,164.225,65.63ZM158.1,113.11V70.99c0-.547.219-.766.711-.766H169.64c.492,0,.711.273.711.766V113.11c0,.6-.219.875-.711.875H158.919a.766.766,0,0,1-.82-.875Z" transform="translate(-98.469 -51.9)" fill="#ff9a00"/>
            </g>
          </g>
        </g>
      </g>
    </g>
  </g>
</svg>
