<svg xmlns="http://www.w3.org/2000/svg" width="256" height="256" viewBox="0 0 256 256">
  <g id="photoshop" transform="translate(-512 -952)">
    <path id="Path_2591" data-name="Path 2591" d="M51.2,0H204.8A51.2,51.2,0,0,1,256,51.2V204.8A51.2,51.2,0,0,1,204.8,256H51.2A51.2,51.2,0,0,1,0,204.8V51.2A51.2,51.2,0,0,1,51.2,0Z" transform="translate(512 952)" fill="rgba(49,168,255,0.2)"/>
    <g id="Layer_2" data-name="Layer 2" transform="translate(574.36 1016.001)">
      <g id="Layer_1" data-name="Layer 1" transform="translate(0 0)">
        <g id="Layer_2-2" data-name="Layer 2">
          <g id="Surfaces">
            <g id="Photo_Surface" data-name="Photo Surface">
              <g id="Outline_no_shadow" data-name="Outline no shadow">
                <path id="Path_2721" data-name="Path 2721" d="M23.248,0h84.785a23.226,23.226,0,0,1,23.248,23.248v81.5A23.226,23.226,0,0,1,108.033,128H23.248A23.226,23.226,0,0,1,0,104.751v-81.5A23.226,23.226,0,0,1,23.248,0Z" transform="translate(0 0)" fill="#001e36"/>
              </g>
            </g>
          </g>
          <g id="Outlined_Mnemonics_Logos" data-name="Outlined Mnemonics Logos" transform="translate(29.538 32.547)">
            <g id="Ps">
              <path id="Path_2722" data-name="Path 2722" d="M54,116.716V60.43c0-.383.164-.6.547-.6.93,0,1.805,0,3.063-.055s2.68-.055,4.157-.109,3.063-.055,4.759-.109S69.863,59.5,71.5,59.5a32.163,32.163,0,0,1,11.268,1.7,19.534,19.534,0,0,1,7.33,4.485A17.417,17.417,0,0,1,94.1,71.917a20.939,20.939,0,0,1,1.258,7.111q0,7.056-3.282,11.651a18.74,18.74,0,0,1-8.807,6.673,35.451,35.451,0,0,1-12.308,1.86c-1.313,0-2.188,0-2.735-.055S66.909,99.1,65.87,99.1v17.559a.678.678,0,0,1-.6.766H54.656C54.219,117.428,54,117.209,54,116.716ZM65.925,70.385V88.765c.766.055,1.477.109,2.133.109h2.9a20.431,20.431,0,0,0,6.291-.985,9.408,9.408,0,0,0,4.485-2.9,8.453,8.453,0,0,0,1.7-5.634,9,9,0,0,0-1.258-4.868,7.931,7.931,0,0,0-3.829-3.118,16.049,16.049,0,0,0-6.455-1.094c-1.422,0-2.68,0-3.72.055a12.526,12.526,0,0,0-2.243.055Z" transform="translate(-54 -59.5)" fill="#31a8ff"/>
              <path id="Path_2723" data-name="Path 2723" d="M168.579,96.662a19.358,19.358,0,0,0-5.251-1.86,28.832,28.832,0,0,0-6.126-.711,11.011,11.011,0,0,0-3.282.383,2.806,2.806,0,0,0-1.7,1.094,2.9,2.9,0,0,0-.438,1.477,2.434,2.434,0,0,0,.547,1.422,6.17,6.17,0,0,0,1.86,1.477c1.258.656,2.571,1.258,3.884,1.805a39.62,39.62,0,0,1,8.424,3.993,12.729,12.729,0,0,1,4.321,4.54,11.81,11.81,0,0,1,1.258,5.634,12.729,12.729,0,0,1-2.133,7.275,13.708,13.708,0,0,1-6.126,4.868,25.063,25.063,0,0,1-9.9,1.75,37.677,37.677,0,0,1-7.439-.711,22.066,22.066,0,0,1-5.579-1.75,1.094,1.094,0,0,1-.6-1.039v-9.518a.6.6,0,0,1,.219-.492.416.416,0,0,1,.492.055,23.417,23.417,0,0,0,6.783,2.68,25.463,25.463,0,0,0,6.455.821,10.441,10.441,0,0,0,4.54-.766,2.544,2.544,0,0,0,1.477-2.3,2.9,2.9,0,0,0-1.313-2.188,23.2,23.2,0,0,0-5.361-2.571,33.466,33.466,0,0,1-7.767-3.938,14.162,14.162,0,0,1-4.157-4.65,11.739,11.739,0,0,1-1.258-5.579,12.865,12.865,0,0,1,1.86-6.619,13.483,13.483,0,0,1,5.744-5.032,21.212,21.212,0,0,1,9.682-1.915,47.157,47.157,0,0,1,6.783.492,19.249,19.249,0,0,1,4.7,1.258.963.963,0,0,1,.547.492,2.735,2.735,0,0,1,.109.656v8.916a.673.673,0,0,1-.273.547A1.455,1.455,0,0,1,168.579,96.662Z" transform="translate(-93.092 -70.734)" fill="#31a8ff"/>
            </g>
          </g>
        </g>
      </g>
    </g>
  </g>
</svg>
