<svg xmlns="http://www.w3.org/2000/svg" width="256" height="256" viewBox="0 0 256 256">
  <g id="xd" transform="translate(-512 -952)">
    <path id="Path_2591" data-name="Path 2591" d="M51.2,0H204.8A51.2,51.2,0,0,1,256,51.2V204.8A51.2,51.2,0,0,1,204.8,256H51.2A51.2,51.2,0,0,1,0,204.8V51.2A51.2,51.2,0,0,1,51.2,0Z" transform="translate(512 952)" fill="rgba(255,97,246,0.2)"/>
    <g id="Layer_2" data-name="Layer 2" transform="translate(574.36 1016.001)">
      <g id="Layer_1" data-name="Layer 1" transform="translate(0 0)">
        <g id="Layer_2-2" data-name="Layer 2">
          <g id="Surfaces">
            <g id="UI_UX_Surface" data-name="UI UX Surface">
              <g id="Outline_no_shadow" data-name="Outline no shadow">
                <path id="Path_2718" data-name="Path 2718" d="M23.248,0h84.785a23.226,23.226,0,0,1,23.248,23.248v81.5A23.226,23.226,0,0,1,108.033,128H23.248A23.226,23.226,0,0,1,0,104.751v-81.5A23.226,23.226,0,0,1,23.248,0Z" transform="translate(0 0)" fill="#470137"/>
              </g>
            </g>
          </g>
          <g id="Outlined_Mnemonics_Logos" data-name="Outlined Mnemonics Logos" transform="translate(19.124 28.057)">
            <g id="Xd-2" data-name="Xd">
              <path id="Path_2719" data-name="Path 2719" d="M84.869,60.818,68.459,87.894l17.5,28.718a.941.941,0,0,1,.109.656c-.055.219-.273.055-.6.109H72.945c-.875,0-1.477-.055-1.86-.6-1.149-2.3-2.352-4.54-3.5-6.838s-2.407-4.54-3.72-6.892-2.626-4.7-3.938-7.111h-.109c-1.149,2.352-2.407,4.7-3.665,7.056s-2.516,4.7-3.72,7-2.516,4.65-3.774,6.892c-.219.547-.656.6-1.258.6H35.366c-.219,0-.383.109-.383-.164a.76.76,0,0,1,.109-.6L52.1,88.824,35.53,60.763c-.164-.219-.219-.438-.109-.547A.635.635,0,0,1,35.967,60H48.384a3.227,3.227,0,0,1,.766.109,1.554,1.554,0,0,1,.547.492c1.039,2.352,2.243,4.7,3.5,7.056s2.571,4.65,3.938,6.947S59.653,79.2,60.8,81.549h.109c1.149-2.407,2.352-4.759,3.556-7.056s2.462-4.595,3.72-6.892,2.462-4.65,3.665-6.892a.93.93,0,0,1,.328-.547,1.045,1.045,0,0,1,.711-.109H84.432a.5.5,0,0,1,.6.383c.055.055-.055.273-.164.383Z" transform="translate(-34.962 -55.234)" fill="#ff61f6"/>
              <path id="Path_2720" data-name="Path 2720" d="M153.327,114.584a27.2,27.2,0,0,1-11.761-2.462,19.068,19.068,0,0,1-8.26-7.439c-2.024-3.337-3.009-7.494-3.009-12.472a22.465,22.465,0,0,1,3.009-11.542,22.717,22.717,0,0,1,8.7-8.479,27.98,27.98,0,0,1,13.839-3.173,9.769,9.769,0,0,1,1.149.055c.492.055,1.039.055,1.7.109V51.9c0-.383.164-.6.547-.6h11.1a.492.492,0,0,1,.547.383v52.184c0,.985.055,2.079.109,3.282s.164,2.243.219,3.173a.886.886,0,0,1-.547.875,41.774,41.774,0,0,1-8.916,2.626,48.25,48.25,0,0,1-8.424.766Zm5.361-10.94V79.576a14,14,0,0,0-1.477-.273c-.6-.055-1.2-.109-1.805-.109a13.484,13.484,0,0,0-6.181,1.422,12.264,12.264,0,0,0-4.65,4.048,12.126,12.126,0,0,0-1.805,6.947,15.245,15.245,0,0,0,.93,5.634,10.689,10.689,0,0,0,2.462,3.884,9.452,9.452,0,0,0,3.72,2.188,14.32,14.32,0,0,0,4.54.711c.82,0,1.586-.055,2.3-.109A4.786,4.786,0,0,0,158.688,103.644Z" transform="translate(-78.148 -51.292)" fill="#ff61f6"/>
            </g>
          </g>
        </g>
      </g>
    </g>
  </g>
</svg>
