<svg width="32" height="32" xmlns="http://www.w3.org/2000/svg">

 <g>
  <title>background</title>
  <rect fill="none" id="canvas_background" height="402" width="582" y="-1" x="-1"/>
 </g>
 <g>
  <title>Layer 1</title>
  <path id="svg_1" fill-rule="evenodd" fill="#ffffff" d="m16.003,0c-8.833,0 -15.995,7.162 -15.995,15.997c0,7.067 4.582,13.063 10.94,15.179c0.8,0.146 1.052,-0.328 1.052,-0.752c0,-0.38 0.008,-1.442 0,-2.777c-4.449,0.967 -5.371,-2.107 -5.371,-2.107c-0.727,-1.848 -1.775,-2.34 -1.775,-2.34c-1.452,-0.992 0.109,-0.973 0.109,-0.973c1.605,0.113 2.451,1.649 2.451,1.649c1.427,2.443 3.743,1.737 4.654,1.329c0.146,-1.034 0.56,-1.739 1.017,-2.139c-3.552,-0.404 -7.286,-1.776 -7.286,-7.906c0,-1.747 0.623,-3.174 1.646,-4.292c-0.165,-0.404 -0.715,-2.031 0.157,-4.234c0,0 1.343,-0.43 4.398,1.641c1.276,-0.355 2.645,-0.532 4.005,-0.538c1.359,0.006 2.727,0.183 4.005,0.538c3.055,-2.07 4.396,-1.641 4.396,-1.641c0.872,2.203 0.323,3.83 0.159,4.234c1.023,1.118 1.644,2.545 1.644,4.292c0,6.146 -3.74,7.498 -7.304,7.893c0.574,0.495 1.095,1.455 1.095,2.947c0,2 0,3.902 0,4.428c0,0.428 0.258,0.901 1.07,0.746c6.352,-2.119 10.93,-8.112 10.93,-15.177c0,-8.835 -7.162,-15.997 -15.997,-15.997z" clip-rule="evenodd"/>
 </g>
</svg>